Coordinates
version=1
nRows=22
nColumns=24
inDegrees=yes

Units are S.I. units (second, meters, Newtons, ...)
Angles are in degrees.

endheader
time	pelvis_tilt	pelvis_list	pelvis_rotation	pelvis_tx	pelvis_ty	pelvis_tz	hip_flexion_r	hip_adduction_r	hip_rotation_r	knee_angle_r	ankle_angle_r	subtalar_angle_r	mtp_angle_r	hip_flexion_l	hip_adduction_l	hip_rotation_l	knee_angle_l	ankle_angle_l	subtalar_angle_l	mtp_angle_l	lumbar_extension	lumbar_bending	lumbar_rotation
      3.97500000	    -18.79280131	     -6.59847397	     -1.42596927	     -1.63941281	     -0.01993116	     -0.31797658	     24.89933893	     10.75443729	     -4.70773083	    -20.38032578	      7.92235842	    -13.61020001	     -2.42725833	     34.04620099	     -9.10251319	     -3.27435204	    -62.21940907	     -6.05201538	     -9.06200084	     21.16365259	     21.27046220	      5.13667716	    -15.22004072
      3.98000000	    -18.84521216	     -6.20386053	     -1.50790649	     -1.63351854	     -0.01899203	     -0.31768975	     24.20098356	     10.45412205	     -4.36436694	    -19.80597758	      7.98772610	    -13.58811279	     -2.65460017	     34.73357129	     -8.67647549	     -3.49521129	    -61.64892504	     -5.50937677	     -9.18480322	     21.02539753	     21.26223557	      4.77789029	    -14.95828378
      3.98500000	    -18.88952497	     -5.81223141	     -1.60938226	     -1.62764046	     -0.01811913	     -0.31737976	     23.49678170	     10.15802587	     -3.99059686	    -19.23283066	      8.07637847	    -13.53458396	     -2.88484116	     35.39305621	     -8.28483111	     -3.76014503	    -61.02065875	     -5.01991587	     -9.32689855	     20.84506830	     21.24522565	      4.42787113	    -14.68674452
      3.99000000	    -18.89953053	     -5.43262518	     -1.74927202	     -1.62177679	     -0.01729317	     -0.31706014	     22.75675176	      9.88102735	     -3.55033630	    -18.66725212	      8.19357698	    -13.42263663	     -3.22192119	     35.99416352	     -7.95015060	     -4.09741245	    -60.34434237	     -4.56923447	     -9.48967127	     20.54678779	     21.18720992	      4.11018659	    -14.38166773
      3.99500000	    -18.95494000	     -5.05465552	     -1.81608483	     -1.61594584	     -0.01656754	     -0.31681571	     22.09637842	      9.56179371	     -3.29016856	    -18.12754223	      8.27719219	    -13.34847771	     -3.46406224	     36.64158182	     -7.57543580	     -4.35348649	    -59.59628018	     -4.14867338	     -9.58849545	     20.31599321	     21.18423303	      3.75864246	    -14.14447670
      4.00000000	    -18.97208111	     -4.68655338	     -1.93129808	     -1.61013729	     -0.01589637	     -0.31655954	     21.39167776	      9.26298461	     -2.91868612	    -17.58967340	      8.41701814	    -13.19325171	     -3.76104861	     37.22406472	     -7.26048720	     -4.69113251	    -58.80257342	     -3.76127798	     -9.71064765	     19.99468073	     21.13559313	      3.44185819	    -13.87897942
      4.00500000	    -19.06528786	     -4.37164017	     -1.93706744	     -1.60436497	     -0.01541063	     -0.31640205	     20.78585597	      8.97080576	     -2.74248177	    -17.04928605	      8.52281809	    -13.11928102	     -3.87982481	     37.91199819	     -6.93265944	     -4.88020893	    -57.96761989	     -3.39179289	     -9.73514332	     19.85636242	     21.17444369	      3.12238158	    -13.76386834
      4.01000000	    -19.06828387	     -3.97152312	     -2.08982276	     -1.59859403	     -0.01481902	     -0.31612270	     20.11213503	      8.63077525	     -2.44673032	    -16.57394557	      8.62846878	    -12.94580769	     -4.09213622	     38.41172329	     -6.64159664	     -5.31528931	    -57.01557615	     -3.05820673	     -9.82465921	     19.55910421	     21.11057759	      2.78874795	    -13.40559510
      4.01500000	    -19.09452662	     -3.63364591	     -2.17154518	     -1.59283305	     -0.01437768	     -0.31594600	     19.46176910	      8.32235691	     -2.21994149	    -16.08512429	      8.74993724	    -12.79100429	     -4.28096021	     38.95101508	     -6.37255629	     -5.65636761	    -56.04069938	     -2.71497810	     -9.80935180	     19.28713241	     21.07539479	      2.48556840	    -13.17604226
      4.02000000	    -19.12318592	     -3.30975200	     -2.25912443	     -1.58710639	     -0.01402070	     -0.31576698	     18.83076988	      8.02283122	     -2.00847091	    -15.61824319	      8.88326399	    -12.61460361	     -4.43144624	     39.47429130	     -6.13665631	     -6.01978014	    -55.01210334	     -2.38075482	     -9.74882285	     19.02510430	     21.04043491	      2.19881890	    -12.94582119
      4.02500000	    -19.15344145	     -3.00086387	     -2.34473753	     -1.58138795	     -0.01374358	     -0.31562795	     18.21603596	      7.72820371	     -1.82466802	    -15.17242649	      9.01705552	    -12.43053163	     -4.53775692	     39.97803719	     -5.92381852	     -6.39398705	    -53.92706513	     -2.05192112	     -9.62994363	     18.78427752	     21.00890929	      1.92719760	    -12.72278957
      4.03000000	    -19.18027382	     -2.70384786	     -2.44221206	     -1.57568257	     -0.01354249	     -0.31547957	     17.61057033	      7.44363197	     -1.65385727	    -14.74441095	      9.16504883	    -12.23213796	     -4.59906093	     40.45189428	     -5.73950284	     -6.78287790	    -52.78434441	     -1.72859425	     -9.45291644	     18.55672494	     20.97518098	      1.66907679	    -12.50575849
      4.03500000	    -19.20968807	     -2.42153274	     -2.53194609	     -1.57000568	     -0.01341859	     -0.31534610	     17.02490420	      7.16486390	     -1.50860639	    -14.34035973	      9.30004858	    -12.02629851	     -4.61558565	     40.90987470	     -5.57833967	     -7.18754809	    -51.58960010	     -1.40561654	     -9.21448109	     18.35731919	     20.93879597	      1.42083900	    -12.28652392
      4.04000000	    -19.24162214	     -2.15122916	     -2.62898063	     -1.56433538	     -0.01337439	     -0.31522930	     16.45285961	      6.89429162	     -1.37489611	    -13.95188761	      9.44296506	    -11.81489068	     -4.59037311	     41.34491652	     -5.43883787	     -7.60334811	    -50.33994423	     -1.08934669	     -8.91500064	     18.18488661	     20.90614065	      1.18756119	    -12.07855002
      4.04500000	    -19.29333010	     -1.90038616	     -2.70382935	     -1.55867107	     -0.01344498	     -0.31514525	     15.91127035	      6.63458129	     -1.27735137	    -13.57699129	      9.59598509	    -11.63022796	     -4.54284036	     41.78657250	     -5.31135205	     -8.00932854	    -49.04648703	     -0.78140495	     -8.55584309	     18.06567642	     20.89261527	      0.96713936	    -11.86885281
      4.05000000	    -19.32771036	     -1.64861728	     -2.81958613	     -1.55303174	     -0.01352962	     -0.31503959	     15.37454220	      6.37692353	     -1.15282989	    -13.24169152	      9.72499126	    -11.39971692	     -4.46494594	     42.16644861	     -5.21195972	     -8.45562774	    -47.67827957	     -0.47764154	     -8.13199898	     17.95685884	     20.85824679	      0.75879795	    -11.65725183
      4.05500000	    -19.37802440	     -1.41734312	     -2.91462033	     -1.54739104	     -0.01372611	     -0.31497502	     14.85871017	      6.13262244	     -1.04531441	    -12.91340793	      9.87256754	    -11.19512086	     -4.38198276	     42.54927687	     -5.12153172	     -8.89214116	    -46.27221088	     -0.18990442	     -7.65845769	     17.87789235	     20.84102129	      0.56283976	    -11.47217575
      4.06000000	    -19.39672232	     -1.18895672	     -3.04116628	     -1.54174304	     -0.01397444	     -0.31484153	     14.31279339	      5.89749468	     -0.91844318	    -12.59161994	     10.05782687	    -10.95886090	     -4.26735377	     42.87060170	     -5.07434043	     -9.40810863	    -44.82891069	      0.09528393	     -7.12208041	     17.80009405	     20.79183151	      0.37114704	    -11.22976675
      4.06500000	    -19.44455473	     -0.97529754	     -3.14702596	     -1.53611108	     -0.01430646	     -0.31478090	     13.81600577	      5.66767639	     -0.81369428	    -12.30091276	     10.21430264	    -10.75367653	     -4.16715410	     43.20046132	     -5.01364451	     -9.87994113	    -43.33065776	      0.35886799	     -6.53773700	     17.74938131	     20.76805576	      0.19444041	    -11.03229771
      4.07000000	    -19.55227634	     -0.78690893	     -3.19567148	     -1.53050208	     -0.01476924	     -0.31481069	     13.39746371	      5.45184674	     -0.73717291	    -12.03903021	     10.35287771	    -10.60892263	     -4.11145860	     43.58570403	     -4.92352430	    -10.26624572	    -41.78823509	      0.56681025	     -5.93190151	     17.73794247	     20.80354172	      0.02051300	    -10.94724613
      4.07500000	    -19.56299275	     -0.57736552	     -3.37381929	     -1.52485734	     -0.01519140	     -0.31468000	     12.88411617	      5.23513318	     -0.60141753	    -11.79006026	     10.54518205	    -10.34157852	     -4.00933552	     43.81493998	     -4.93150878	    -10.86767852	    -40.21307027	      0.82106710	     -5.23050961	     17.74106188	     20.73760441	     -0.12544476	    -10.63231160
      4.08000000	    -19.61406402	     -0.38664779	     -3.48266593	     -1.51921149	     -0.01570972	     -0.31465691	     12.42385909	      5.02103100	     -0.50331679	    -11.56409178	     10.71320711	    -10.14161730	     -3.93340607	     44.07587660	     -4.88825003	    -11.37064579	    -38.59430211	      1.00829140	     -4.52653984	     17.74994924	     20.71236338	     -0.28089181	    -10.44075936
